# Blender v2.79 (sub 0) OBJ File: 'untitled.blend'
# www.blender.org
mtllib hand.mtl
o Cube
v 0.434317 0.895348 -1.038426
v 0.428119 0.864586 0.854167
v 0.427090 -0.857251 0.854167
v 0.433549 -0.902203 -1.038427
v -0.294546 0.736764 0.757118
v -0.294535 -0.739857 0.757117
v 0.490162 1.002113 0.000000
v 0.539184 0.000507 -0.881155
v -0.011005 1.000000 -1.015525
v 0.449219 0.000003 0.895012
v -0.000007 0.904687 0.895012
v 0.445319 -0.905674 -0.000000
v 0.000007 -0.913490 0.895011
v -0.010990 -1.052339 -1.015526
v -0.299457 0.890623 0.000000
v -0.299321 -0.000003 0.895012
v -0.299443 -0.905680 -0.000000
v -0.044937 1.785529 -0.358455
v 0.000008 -1.070631 -0.000000
v -0.049226 1.104140 0.000000
v -0.276076 -0.000002 0.000000
v 0.554917 0.000004 -0.000000
v 0.453174 0.997245 0.489094
v 0.524945 -0.453347 -1.030258
v -0.245628 0.910024 -0.936158
v 0.444014 -0.489580 0.891530
v -0.241856 0.832374 0.891531
v 0.444545 -0.905674 -0.502886
v -0.241844 -0.845115 0.891530
v -0.245614 -0.931030 -0.936158
v -0.303799 0.888018 0.489584
v -0.308618 -0.489586 0.891530
v -0.262822 -0.906779 -0.494351
v 0.452759 1.001691 -0.502308
v 0.524938 0.456991 -1.030258
v 0.234794 1.000002 -1.038988
v 0.444007 0.489587 0.891530
v 0.244785 0.895835 0.899343
v 0.444017 -0.900754 0.489583
v 0.244798 -0.900756 0.891530
v 0.234809 -1.048922 -1.031176
v -0.262835 0.892186 -0.494350
v -0.308625 0.489581 0.891531
v -0.303785 -0.900760 0.489583
v -0.012845 1.694948 0.251243
v 0.271279 1.914930 -0.358455
v -0.275369 0.000501 -0.876601
v 0.303372 1.824349 0.251243
v -0.000808 -1.069473 -0.501462
v 0.000008 -1.048924 0.492187
v 0.246102 -1.050080 -0.000000
v -0.243651 -1.048925 -0.000000
v 0.001108 -0.591417 1.047233
v 0.001099 0.590258 1.047233
v 0.295129 0.000002 1.047233
v -0.276614 -0.000003 1.047233
v -0.001045 1.077199 0.491177
v -0.002535 1.085812 -0.501169
v -0.247573 0.999998 0.000000
v -0.288548 -0.000002 0.492188
v -0.259772 -0.000002 -0.489583
v -0.299900 0.492185 0.000000
v -0.299892 -0.493348 0.000000
v 0.536934 -0.493341 -0.000000
v 0.540833 0.500004 -0.000000
v 0.554917 0.000004 -0.489583
v 0.536930 0.000004 0.492187
v 0.533801 0.500004 0.492187
v 0.537088 0.496911 -0.502308
v 0.536314 -0.489871 -0.502308
v -0.277115 -0.489877 -0.500600
v -0.277122 0.489092 -0.500600
v -0.310089 0.492185 0.492188
v -0.240980 0.992186 -0.494350
v 0.243196 1.100002 -0.595924
v 0.244952 1.089235 0.582721
v -0.235560 0.497205 1.032941
v 0.248600 0.497209 1.032940
v 0.248607 -0.498132 1.032940
v -0.243566 -1.030692 0.492187
v 0.246101 -1.030689 0.492187
v 0.245392 -1.051237 -0.502174
v -0.058910 1.779646 -0.033235
v -0.261876 0.458235 -1.002936
v -0.261869 -0.455158 -1.002936
v 0.282369 1.930145 -0.033236
v -0.240965 -1.034107 -0.494351
v -0.235552 -0.498136 1.032940
v -0.243581 0.990623 0.492188
v -0.310081 -0.493348 0.492187
v 0.533028 -0.493341 0.492187
v 0.059352 0.780408 -2.821099
v 0.059364 -0.779777 -2.821100
v -0.225499 0.799167 -2.814650
v -0.225487 -0.799855 -2.814650
v 0.053343 -0.529327 -2.863759
v -0.296451 0.780406 -2.738059
v -0.296440 -0.779780 -2.738059
v 0.053335 0.535304 -2.863759
v -0.062837 0.799168 -2.848983
v -0.062825 -0.799854 -2.848983
v -0.245949 -0.528128 -2.936153
v -0.245956 0.534300 -2.936153
v -0.090073 0.534301 -2.969375
v -0.301247 0.535302 -2.778664
v -0.301239 -0.529330 -2.778664
v -0.090065 -0.528127 -2.969375
v 0.084844 1.933306 -0.038596
v 0.101963 1.882464 -0.388633
v 0.139287 1.777115 0.267483
v -0.050815 -1.034830 -1.616157
v 0.375533 0.892059 -1.678724
v -0.218488 -0.906580 -1.581408
v -0.234947 -0.539390 -1.580396
v 0.422531 -0.539385 -1.685358
v 0.375546 -0.904318 -1.678724
v 0.181757 -1.034828 -1.650910
v 0.181742 0.989674 -1.650909
v -0.050830 0.989673 -1.616156
v 0.422523 0.544314 -1.685358
v -0.234955 0.544309 -1.580396
v -0.218501 0.893617 -1.581408
v -0.250957 -0.542336 -2.229294
v 0.067177 -0.966931 -2.313071
v 0.067163 0.954196 -2.313071
v -0.134934 0.954194 -2.272108
v -0.246223 0.865977 -2.234053
v -0.134920 -0.966932 -2.272108
v 0.236681 0.865981 -2.339366
v -0.246211 -0.867824 -2.234053
v 0.276986 -0.542332 -2.350268
v 0.236693 -0.867820 -2.339367
v 0.276978 0.548511 -2.350268
v -0.250965 0.548507 -2.229294
v 0.444437 1.511600 -0.006433
v -0.021182 1.468775 -0.006432
v 0.211487 1.500002 -0.484375
v 0.020952 1.474033 -0.395833
v 0.411686 1.480865 0.362598
v 0.224045 1.464557 0.445779
v 0.031765 1.443511 0.362598
v 0.400872 1.511387 -0.395833
v 0.432769 -0.182363 -1.150687
v -0.204999 -0.182368 -1.124073
v 0.038715 -0.339657 -2.817631
v -0.222192 -0.326447 -2.816007
v -0.286634 -0.339660 -2.741980
v -0.077375 -0.326446 -2.846379
v -0.214395 -0.280354 -1.595814
v 0.374730 -0.280350 -1.686411
v -0.242302 -0.299417 -2.235702
v 0.228917 -0.299414 -2.338102
v 0.432766 0.206875 -1.150687
v -0.205002 0.206871 -1.124073
v 0.038710 0.361784 -2.817631
v -0.222197 0.350805 -2.816007
v -0.286640 0.361782 -2.741980
v -0.077380 0.350806 -2.846379
v -0.214399 0.304952 -1.595814
v 0.374726 0.304956 -1.686411
v -0.242307 0.323774 -2.235702
v 0.228913 0.323777 -2.338102
v -0.008042 0.161815 -1.140575
v 0.234091 0.161817 -1.150537
v 0.181198 0.252493 -1.658612
v -0.050555 0.252491 -1.624011
v 0.061687 0.275373 -2.312023
v -0.133045 0.275372 -2.272611
v -0.008039 -0.130010 -1.140575
v 0.234093 -0.130008 -1.150537
v 0.181201 -0.220726 -1.658612
v -0.050551 -0.220728 -1.624011
v 0.061691 -0.244497 -2.312023
v -0.133041 -0.244498 -2.272611
v 0.000004 -0.551010 1.236398
v -0.000004 0.551009 1.236398
v 0.275505 0.000002 1.236398
v -0.274126 -0.000003 1.236398
v -0.223208 0.448614 1.235521
v 0.224305 0.448618 1.235521
v 0.224312 -0.448615 1.235521
v -0.223202 -0.448619 1.235521
v 0.000006 -0.729617 1.462709
v -0.000005 0.729616 1.462709
v 0.364808 0.000002 1.462709
v -0.364808 -0.000003 1.462709
v -0.346605 0.693196 1.462710
v 0.346595 0.693202 1.462709
v 0.346605 -0.693197 1.462709
v -0.346594 -0.693203 1.462709
v 0.000006 -0.730766 1.981810
v -0.000005 0.730765 1.981811
v 0.419659 0.000003 1.981810
v -0.419658 -0.000004 1.981811
v -0.321971 0.643929 1.981811
v 0.321961 0.643934 1.981811
v 0.321971 -0.643930 1.981810
v -0.321961 -0.643935 1.981810
v -0.205001 0.012252 -1.124073
v 0.432768 0.012256 -1.150687
vn 0.9794 -0.1413 0.1446
vn -0.9990 -0.0362 0.0250
vn -0.9039 0.3820 0.1922
vn -0.9212 -0.1730 0.3486
vn -0.9852 -0.1691 -0.0291
vn -0.0587 -0.9569 -0.2845
vn -0.5932 -0.7969 -0.1145
vn 0.3288 0.8920 -0.3102
vn -0.9950 0.0473 0.0880
vn 0.0433 -0.9989 -0.0195
vn 0.0785 -0.9960 0.0416
vn -0.9204 -0.3908 0.0052
vn 0.1137 -0.3737 0.9205
vn -0.9940 0.0975 0.0497
vn -0.9504 0.0361 0.3090
vn -0.0938 0.8876 0.4509
vn 0.1699 0.4394 0.8820
vn -0.9423 0.3319 -0.0433
vn -0.9994 -0.0314 -0.0117
vn -0.9983 -0.0423 -0.0393
vn -0.9981 -0.0182 -0.0596
vn 0.9763 -0.2162 -0.0021
vn 0.9995 0.0319 -0.0039
vn 0.9763 0.0090 0.2162
vn 0.9995 0.0172 0.0254
vn 0.9905 0.1303 0.0451
vn 0.9788 0.1161 0.1688
vn 0.9991 0.0283 -0.0315
vn 0.9819 0.1817 -0.0532
vn 0.9903 0.1328 -0.0410
vn 0.9780 -0.2069 -0.0283
vn 0.9991 -0.0295 -0.0306
vn 0.9993 -0.0372 -0.0008
vn -0.9983 0.0422 -0.0393
vn -1.0000 0.0040 0.0006
vn -0.9987 -0.0370 -0.0347
vn -0.9980 0.0188 -0.0596
vn -0.9986 0.0386 -0.0349
vn -1.0000 -0.0040 0.0005
vn -0.9990 0.0369 0.0246
vn -0.9999 0.0084 -0.0148
vn -0.9987 -0.0460 -0.0230
vn -0.4126 0.9097 -0.0460
vn -0.3818 0.9112 -0.1548
vn -0.9765 0.2134 -0.0294
vn 0.9334 0.3474 0.0894
vn 0.4715 0.8602 -0.1942
vn -0.0737 0.9793 -0.1888
vn 0.4024 0.8200 0.4071
vn -0.9835 -0.1624 -0.0797
vn -0.3588 0.0876 -0.9293
vn 0.3791 -0.8962 0.2303
vn -0.1730 0.4040 0.8982
vn -0.9188 0.1790 0.3519
vn 0.6431 0.0475 0.7643
vn 0.4494 0.2037 0.8698
vn 0.0955 0.3709 0.9237
vn 0.4419 -0.2141 0.8712
vn 0.6432 -0.0474 0.7642
vn -0.3883 -0.8957 0.2168
vn -0.0816 -0.9958 0.0404
vn -0.1660 -0.9154 0.3667
vn -0.9237 -0.3336 0.1885
vn 0.5683 -0.8225 0.0211
vn 0.4240 -0.8810 0.2101
vn 0.0620 -0.9475 0.3136
vn 0.5917 -0.8060 -0.0164
vn 0.5885 -0.8085 0.0001
vn 0.0785 -0.9969 -0.0001
vn 0.9204 0.0923 -0.3800
vn -0.9955 -0.0107 0.0940
vn 0.9206 -0.0901 -0.3800
vn 0.3589 -0.8740 -0.3275
vn -0.0548 0.9625 -0.2655
vn -0.5555 0.8236 -0.1146
vn -0.9955 0.0109 0.0940
vn -0.3298 -0.9373 -0.1128
vn -0.1174 -0.9930 -0.0162
vn -0.9604 -0.2756 -0.0420
vn -0.1669 -0.3947 0.9035
vn -0.3882 0.8968 0.2122
vn -0.9504 -0.0361 0.3089
vn -0.2919 0.8841 0.3651
vn -0.3963 0.9165 0.0549
vn -0.8840 0.4674 0.0054
vn -0.9994 0.0314 -0.0117
vn -0.9987 0.0459 -0.0230
vn -0.9999 -0.0082 -0.0148
vn 0.9766 -0.2152 0.0063
vn 0.9995 -0.0222 0.0222
vn 0.9765 -0.0098 0.2152
vn 0.4495 -0.2400 -0.8604
vn -0.8713 -0.1834 -0.4551
vn -0.1881 0.4219 -0.8869
vn 0.4484 0.2455 -0.8594
vn -0.8704 0.1878 -0.4552
vn -0.8647 0.2576 -0.4312
vn -0.1889 -0.4131 -0.8909
vn -0.1768 0.5198 -0.8358
vn 0.4450 0.3571 -0.8212
vn 0.9057 0.1828 -0.3825
vn -0.6565 0.7501 -0.0802
vn -0.0698 0.9928 -0.0977
vn -0.0978 0.9050 0.4140
vn -0.5826 0.7130 0.3900
vn -0.9851 -0.1122 0.1304
vn 0.2781 0.2420 -0.9296
vn 0.9392 0.3342 -0.0790
vn -0.3568 0.3607 0.8617
vn 0.9583 0.1878 -0.2152
vn -0.9982 0.0442 -0.0416
vn -0.9974 -0.0643 0.0328
vn -0.4232 0.9059 -0.0151
vn -0.0021 0.9999 -0.0169
vn 0.5724 -0.8179 -0.0582
vn 0.9799 -0.1664 -0.1100
vn -0.9982 -0.0420 -0.0421
vn 0.9790 0.1712 -0.1107
vn -0.9902 0.1339 -0.0398
vn 0.4540 0.8896 -0.0502
vn -0.5317 -0.8466 -0.0231
vn 0.0044 -0.9996 -0.0262
vn 0.9625 0.2168 -0.1632
vn -0.9989 0.0320 0.0330
vn -0.9886 -0.1443 -0.0418
vn -0.5499 0.8352 0.0067
vn -0.0091 0.9986 -0.0524
vn 0.5094 -0.8447 -0.1643
vn 0.9691 -0.1279 -0.2111
vn -0.9990 -0.0309 0.0327
vn 0.9687 0.1326 -0.2100
vn -0.9977 0.0595 0.0330
vn 0.4370 0.8907 -0.1252
vn -0.6331 -0.7740 -0.0090
vn -0.0174 -0.9948 -0.0999
vn -0.3717 0.3182 0.8721
vn 0.9905 0.1037 -0.0900
vn 0.4465 0.2471 -0.8600
vn -0.9869 0.1048 0.1224
vn -0.3947 0.2399 -0.8869
vn -0.9917 0.0810 -0.1001
vn 0.9915 0.0984 0.0847
vn 0.4360 0.2927 0.8510
vn -0.9948 -0.0514 0.0880
vn -0.8583 -0.2809 -0.4294
vn -0.1720 -0.5559 -0.8133
vn 0.4380 -0.3868 -0.8115
vn 0.9030 -0.1980 -0.3813
vn 0.9554 -0.2025 -0.2150
vn 0.9583 -0.2330 -0.1654
vn -0.0168 -0.9838 -0.1783
vn -0.0059 -0.9994 -0.0342
vn -0.0168 0.9838 -0.1784
vn -0.0062 0.9993 -0.0355
vn -0.2768 -0.9454 -0.1718
vn -0.3466 -0.9380 -0.0007
vn 0.2568 -0.9629 -0.0830
vn 0.2234 -0.9547 -0.1964
vn 0.2560 0.9461 -0.1983
vn 0.2891 0.9530 -0.0901
vn -0.3111 0.9354 -0.1679
vn -0.3863 0.9224 0.0024
vn 0.2312 0.9541 -0.1901
vn -0.0296 0.9891 -0.1441
vn -0.3956 0.9167 -0.0564
vn -0.3547 -0.9333 -0.0558
vn -0.0273 -0.9908 -0.1329
vn 0.2036 -0.9635 -0.1739
vn -0.0008 -0.0000 -1.0000
vn -0.0411 -0.0000 -0.9992
vn -0.0835 -0.0000 -0.9965
vn -0.1688 -0.6973 -0.6966
vn -0.8915 0.0536 -0.4498
vn 0.8934 0.0540 -0.4460
vn 0.8934 -0.0540 -0.4460
vn 0.9869 -0.1038 0.1238
vn 0.3790 0.8974 0.2258
vn -0.9940 -0.0974 0.0500
vn 0.9869 0.1040 0.1235
vn 0.1685 -0.6976 -0.6964
vn 0.1685 0.6976 -0.6964
vn -0.1688 0.6973 -0.6966
vn -0.8915 -0.0536 -0.4498
vn 0.1811 0.9822 0.0498
vn -0.1811 0.9822 0.0498
vn -0.9960 -0.0863 -0.0249
vn 0.9960 -0.0863 -0.0249
vn 0.9960 0.0863 -0.0249
vn -0.9960 0.0863 -0.0249
vn -0.1811 -0.9822 0.0498
vn 0.1811 -0.9822 0.0498
vn -0.0000 -0.0000 1.0000
vn -0.9533 0.0384 -0.2994
vn -0.9521 -0.0390 -0.3033
vn 0.9094 0.0742 -0.4093
vn 0.9064 -0.0753 -0.4156
usemtl Material
s off
f 91//1 26//1 3//1 39//1
f 90//2 44//2 6//2 32//2
f 89//3 31//3 5//3 27//3
f 88//4 32//4 6//4 29//4
f 87//5 33//5 30//5
f 124//6 128//6 95//6 101//6
f 128//7 130//7 98//7 95//7
f 125//8 129//8 92//8 100//8
f 106//9 123//9 151//9 147//9
f 82//10 49//10 14//10 41//10
f 81//11 50//11 19//11 51//11
f 80//12 44//12 17//12 52//12
f 79//13 53//13 13//13 40//13
f 77//14 56//14 178//14 179//14
f 77//15 43//15 16//15 56//15
f 76//16 57//16 11//16 38//16
f 140//17 139//17 48//17 110//17
f 74//18 42//18 15//18 59//18
f 73//19 60//19 16//19 43//19
f 72//20 61//20 21//20 62//20
f 71//21 33//21 17//21 63//21
f 70//22 64//22 12//22 28//22
f 69//23 65//23 22//23 66//23
f 68//24 37//24 10//24 67//24
f 65//25 68//25 67//25 22//25
f 7//26 23//26 68//26 65//26
f 23//27 2//27 37//27 68//27
f 35//28 69//28 66//28 8//28
f 1//29 34//29 69//29 35//29
f 34//30 7//30 65//30 69//30
f 24//31 70//31 28//31 4//31
f 8//32 66//32 70//32 24//32
f 66//33 22//33 64//33 70//33
f 61//34 71//34 63//34 21//34
f 47//35 85//35 71//35 61//35
f 85//36 30//36 33//36 71//36
f 42//37 72//37 62//37 15//37
f 25//38 84//38 72//38 42//38
f 84//39 47//39 61//39 72//39
f 31//40 73//40 43//40 5//40
f 15//41 62//41 73//41 31//41
f 62//42 21//42 60//42 73//42
f 58//43 74//43 59//43 20//43
f 9//44 25//44 74//44 58//44
f 25//45 42//45 74//45
f 139//46 135//46 86//46 48//46
f 1//47 36//47 75//47 34//47
f 36//48 9//48 58//48 75//48
f 23//49 76//49 38//49 2//49
f 138//50 136//50 83//50 18//50
f 137//51 138//51 18//51 109//51
f 53//52 79//52 181//52 175//52
f 11//53 27//53 77//53 54//53
f 27//54 5//54 43//54 77//54
f 37//55 78//55 55//55 10//55
f 2//56 38//56 78//56 37//56
f 38//57 11//57 54//57 78//57
f 26//58 79//58 40//58 3//58
f 10//59 55//59 79//59 26//59
f 88//60 53//60 175//60 182//60
f 50//61 80//61 52//61 19//61
f 13//62 29//62 80//62 50//62
f 29//63 6//63 44//63 80//63
f 39//64 81//64 51//64 12//64
f 3//65 40//65 81//65 39//65
f 40//66 13//66 50//66 81//66
f 28//67 82//67 41//67 4//67
f 12//68 51//68 82//68 28//68
f 51//69 19//69 49//69 82//69
f 129//70 133//70 99//70 92//70
f 130//71 123//71 106//71 98//71
f 131//72 132//72 93//72 96//72
f 132//73 124//73 101//73 93//73
f 126//74 125//74 100//74 94//74
f 127//75 126//75 94//75 97//75
f 134//76 127//76 97//76 105//76
f 49//77 87//77 30//77 14//77
f 19//78 52//78 87//78 49//78
f 52//79 17//79 33//79 87//79
f 53//80 88//80 29//80 13//80
f 54//81 77//81 179//81 176//81
f 56//82 16//82 32//82 88//82
f 57//83 89//83 27//83 11//83
f 20//84 59//84 89//84 57//84
f 59//85 15//85 31//85 89//85
f 60//86 90//86 32//86 16//86
f 21//87 63//87 90//87 60//87
f 63//88 17//88 44//88 90//88
f 64//89 91//89 39//89 12//89
f 22//90 67//90 91//90 64//90
f 67//91 10//91 26//91 91//91
f 107//92 96//92 93//92 101//92
f 106//93 102//93 95//93 98//93
f 94//94 100//94 104//94 103//94
f 100//95 92//95 99//95 104//95
f 97//96 94//96 103//96 105//96
f 146//97 102//97 106//97 147//97
f 102//98 107//98 101//98 95//98
f 148//99 107//99 102//99 146//99
f 145//100 96//100 107//100 148//100
f 145//101 152//101 131//101 96//101
f 109//102 18//102 83//102 108//102
f 46//103 109//103 108//103 86//103
f 86//104 108//104 110//104 48//104
f 108//105 83//105 45//105 110//105
f 136//106 141//106 45//106 83//106
f 142//107 137//107 109//107 46//107
f 135//108 142//108 46//108 86//108
f 141//109 140//109 110//109 45//109
f 152//110 150//110 115//110 131//110
f 84//111 25//111 122//111 121//111
f 134//112 161//112 159//112 121//112
f 25//113 9//113 119//113 122//113
f 9//114 36//114 118//114 119//114
f 4//115 41//115 117//115 116//115
f 24//116 4//116 116//116 115//116
f 30//117 85//117 114//117 113//117
f 1//118 35//118 120//118 112//118
f 149//119 114//119 85//119 144//119
f 36//120 1//120 112//120 118//120
f 14//121 30//121 113//121 111//121
f 41//122 14//122 111//122 117//122
f 143//123 24//123 115//123 150//123
f 121//124 122//124 127//124 134//124
f 154//125 84//125 121//125 159//125
f 122//126 119//126 126//126 127//126
f 119//127 118//127 125//127 126//127
f 116//128 117//128 124//128 132//128
f 115//129 116//129 132//129 131//129
f 113//130 114//130 123//130 130//130
f 112//131 120//131 133//131 129//131
f 151//132 123//132 114//132 149//132
f 118//133 112//133 129//133 125//133
f 111//134 113//134 130//134 128//134
f 117//135 111//135 128//135 124//135
f 57//136 76//136 140//136 141//136
f 7//137 34//137 142//137 135//137
f 34//138 75//138 137//138 142//138
f 20//139 57//139 141//139 136//139
f 75//140 58//140 138//140 137//140
f 58//141 20//141 136//141 138//141
f 23//142 7//142 135//142 139//142
f 76//143 23//143 139//143 140//143
f 161//144 134//144 105//144 157//144
f 105//145 103//145 156//145 157//145
f 103//146 104//146 158//146 156//146
f 104//147 99//147 155//147 158//147
f 99//148 133//148 162//148 155//148
f 133//149 120//149 160//149 162//149
f 153//150 160//150 120//150 35//150
f 163//151 166//151 165//151 164//151
f 166//152 168//152 167//152 165//152
f 169//153 170//153 171//153 172//153
f 172//154 171//154 173//154 174//154
f 159//155 166//155 163//155 154//155
f 161//156 168//156 166//156 159//156
f 162//157 160//157 165//157 167//157
f 160//158 153//158 164//158 165//158
f 150//159 171//159 170//159 143//159
f 152//160 173//160 171//160 150//160
f 169//161 172//161 149//161 144//161
f 151//162 149//162 172//162 174//162
f 152//163 145//163 148//163 173//163
f 146//164 174//164 173//164 148//164
f 151//165 174//165 146//165 147//165
f 161//166 157//166 156//166 168//166
f 156//167 158//167 167//167 168//167
f 162//168 167//168 158//168 155//168
f 164//169 153//169 200//169 143//169 170//169
f 163//170 164//170 170//170 169//170
f 169//171 144//171 199//171 154//171 163//171
f 182//172 175//172 183//172 190//172
f 179//173 178//173 186//173 187//173
f 177//174 180//174 188//174 185//174
f 181//175 177//175 185//175 189//175
f 79//176 55//176 177//176 181//176
f 78//177 54//177 176//177 180//177
f 56//178 88//178 182//178 178//178
f 55//179 78//179 180//179 177//179
f 175//180 181//180 189//180 183//180
f 180//181 176//181 184//181 188//181
f 176//182 179//182 187//182 184//182
f 178//183 182//183 190//183 186//183
f 188//184 184//184 192//184 196//184
f 184//185 187//185 195//185 192//185
f 186//186 190//186 198//186 194//186
f 189//187 185//187 193//187 197//187
f 185//188 188//188 196//188 193//188
f 187//189 186//189 194//189 195//189
f 190//190 183//190 191//190 198//190
f 183//191 189//191 197//191 191//191
f 194//192 198//192 191//192 197//192 193//192 196//192 192//192 195//192
f 47//193 199//193 144//193 85//193
f 84//194 154//194 199//194 47//194
f 24//195 143//195 200//195 8//195
f 8//196 200//196 153//196 35//196
